<svg id="visual" viewBox="0 0 960 540" width="960" height="540" xmlns="http://www.w3.org/2000/svg" xmlns:xlink="http://www.w3.org/1999/xlink" version="1.1"><rect x="0" y="0" width="960" height="540" fill="#ffffff"></rect><path d="M0 144L80 146.5C160 149 320 154 480 145.2C640 136.3 800 113.7 880 102.3L960 91L960 541L880 541C800 541 640 541 480 541C320 541 160 541 80 541L0 541Z" fill="#ffffff"></path><path d="M0 159L80 163.3C160 167.7 320 176.3 480 186.2C640 196 800 207 880 212.5L960 218L960 541L880 541C800 541 640 541 480 541C320 541 160 541 80 541L0 541Z" fill="#ebf2ff"></path><path d="M0 274L80 281.5C160 289 320 304 480 312.2C640 320.3 800 321.7 880 322.3L960 323L960 541L880 541C800 541 640 541 480 541C320 541 160 541 80 541L0 541Z" fill="#d7e6ff"></path><path d="M0 343L80 351.8C160 360.7 320 378.3 480 387C640 395.7 800 395.3 880 395.2L960 395L960 541L880 541C800 541 640 541 480 541C320 541 160 541 80 541L0 541Z" fill="#c2d9ff"></path><path d="M0 417L80 423.5C160 430 320 443 480 445C640 447 800 438 880 433.5L960 429L960 541L880 541C800 541 640 541 480 541C320 541 160 541 80 541L0 541Z" fill="#accdff"></path></svg>